<?xml version="1.0" encoding="utf-8"?>
<!-- Generator: Adobe Illustrator 22.0.1, SVG Export Plug-In . SVG Version: 6.00 Build 0)  -->
<svg version="1.1" id="Layer_1" xmlns="http://www.w3.org/2000/svg" xmlns:xlink="http://www.w3.org/1999/xlink" x="0px" y="0px"
     viewBox="0 0 50 50" style="enable-background:new 0 0 50 50;" xml:space="preserve">
<style type="text/css">
	.st0{fill:none;}
	.st1{fill:#F72C3A;}
</style>
    <g>
	<rect y="0" class="st0" width="50" height="50"/>
</g>
    <g>
	<path class="st1" d="M25,0C11.2,0,0,11.2,0,25s11.2,25,25,25s25-11.2,25-25S38.8,0,25,0z M25,48C12.3,48,2,37.7,2,25
		C2,12.3,12.3,2,25,2c12.7,0,23,10.3,23,23C48,37.7,37.7,48,25,48z"/>
        <path class="st1" d="M26.4,33.5h-2.7c-0.2,0-0.4,0.1-0.4,0.4v3.1c0,0.2,0.1,0.4,0.4,0.4h2.7c0.2,0,0.4-0.1,0.4-0.4v-3.1
		C26.8,33.6,26.7,33.5,26.4,33.5z"/>
        <path class="st1" d="M25.3,12.5c-3.7,0-6.2,2.3-6.7,5.7c0,0.2,0.1,0.4,0.3,0.4l2.3,0.4c0.2,0,0.4-0.1,0.4-0.3
		c0.4-2.2,1.7-3.4,3.7-3.4c2,0,3.5,1.3,3.5,3.3c0,1.2-0.4,2-1.7,3.8l-2.4,3.3c-0.8,1-1.1,1.8-1.1,3.2v1.5c0,0.2,0.1,0.4,0.4,0.4h2.4
		c0.2,0,0.4-0.1,0.4-0.4v-1.1c0-1.2,0.2-1.7,0.9-2.7l2.4-3.3c1.2-1.7,1.8-2.9,1.8-4.7C31.8,15.1,29.2,12.5,25.3,12.5z"/>
</g>
</svg>
