<svg xmlns="http://www.w3.org/2000/svg" width="50" height="46" viewBox="0 0 50 46">
  <path d="M836.893,704H832v0.032H819.051a1.026,1.026,0,0,1-1.053-1.07,1.06,1.06,0,0,1,1.089-.936H832v-0.031h4.858a1.1,1.1,0,0,1,1.149.936A1.053,1.053,0,0,1,836.893,704Zm-13-9H822v0.032h-2.952A1.022,1.022,0,0,1,818,693.962a1.057,1.057,0,0,1,1.089-.929H822V693h1.858a1.1,1.1,0,0,1,1.149.93A1.05,1.05,0,0,1,823.893,694.992Zm-13.655,19.739a1.025,1.025,0,0,1-1.451,0l-1.994-2a1.027,1.027,0,1,1,1.451-1.453l1.268,1.27,2.728-2.731a1.027,1.027,0,0,1,1.452,1.453Zm0-9a1.025,1.025,0,0,1-1.451,0l-1.994-2a1.027,1.027,0,0,1,1.451-1.454l1.268,1.27,2.728-2.731a1.027,1.027,0,1,1,1.452,1.453Zm0-9.5a1.025,1.025,0,0,1-1.451,0l-1.994-2a1.027,1.027,0,0,1,1.451-1.453l1.268,1.27,2.728-2.731a1.027,1.027,0,0,1,1.452,1.453Zm8.849,14.8H832V711h4.858a1.1,1.1,0,0,1,1.149.93,1.05,1.05,0,0,1-1.111,1.061H832v0.032H819.051A1.022,1.022,0,0,1,818,711.96,1.057,1.057,0,0,1,819.087,711.031Zm1.857,10.948-1.921.031a1,1,0,0,1-1.016-1.048,1.028,1.028,0,0,1,1.051-.917l1.849-.03a1.065,1.065,0,0,1,1.108.916A1.023,1.023,0,0,1,820.944,721.979Zm6,0-1.921.031a1,1,0,0,1-1.016-1.048,1.028,1.028,0,0,1,1.051-.917l1.849-.03a1.065,1.065,0,0,1,1.108.916A1.023,1.023,0,0,1,826.944,721.979Zm6,0-1.921.031a1,1,0,0,1-1.016-1.048,1.028,1.028,0,0,1,1.051-.917l1.849-.03a1.065,1.065,0,0,1,1.108.916A1.023,1.023,0,0,1,832.944,721.979Zm6,0-1.921.031a1,1,0,0,1-1.016-1.048,1.028,1.028,0,0,1,1.051-.917l1.849-.03a1.065,1.065,0,0,1,1.108.916A1.023,1.023,0,0,1,838.944,721.979Zm6,0-1.921.031a1,1,0,0,1-1.016-1.048,1.028,1.028,0,0,1,1.051-.917l1.849-.03a1.065,1.065,0,0,1,1.108.916A1.023,1.023,0,0,1,844.944,721.979ZM842,714V697h1.994v17H842Zm-13-29.972L804,684a1.214,1.214,0,0,0-1,1v40a1.214,1.214,0,0,0,1,1l10,0.031V728l-10.161-.01a2.853,2.853,0,0,1-2.833-2.866V684.859a2.853,2.853,0,0,1,2.833-2.866L829,682.024v2Zm-0.994.123v10.991a2.8,2.8,0,0,0,2.785,2.818h4.088v0.031h7.959c1.535,0,.26-1.96-0.159-1.96h-6.814V696h-4.916a1.192,1.192,0,0,1-.983-0.983v-11.73C829.966,682.864,828.006,682.6,828.006,684.151Zm2.348-1.827,13.288,13.245a1.079,1.079,0,0,1,.153,1.445,1.033,1.033,0,0,1-1.51-.034l-13.34-13.3a1.006,1.006,0,0,1,0-1.471A1.041,1.041,0,0,1,830.354,682.324Zm15.525,43.667a0.9,0.9,0,0,1-.632-0.257,0.868,0.868,0,0,1,0-1.241L848.83,721l-3.582-3.489a0.871,0.871,0,0,1,0-1.242,0.906,0.906,0,0,1,1.263,0l4.213,4.112a0.868,0.868,0,0,1,0,1.241l-4.213,4.111A0.9,0.9,0,0,1,845.879,725.991Z" transform="translate(-801 -682)"/>
</svg>
