<svg xmlns="http://www.w3.org/2000/svg" width="54" height="46" viewBox="0 0 54 46">
  <path d="M986.157,718.02H978v-0.03H967.833a2.855,2.855,0,0,1-2.83-2.87V694.86a2.855,2.855,0,0,1,2.83-2.87H980v0.03h6.161a2.856,2.856,0,0,1,2.831,2.87v20.27A2.848,2.848,0,0,1,986.157,718.02ZM987,695.03a1.21,1.21,0,0,0-1-1h-8V694h-10a1.21,1.21,0,0,0-1,1v20a1.21,1.21,0,0,0,1,1h12v0.03h6a1.21,1.21,0,0,0,1-1v-20ZM983.887,706H982v0.03h-3.951a1.024,1.024,0,0,1-1.05-1.07,1.049,1.049,0,0,1,1.09-.94H982v-0.03h1.86a1.085,1.085,0,0,1,1.141.94A1.051,1.051,0,0,1,983.887,706Zm0-6.01H982v0.03h-3.951a1.016,1.016,0,0,1-1.05-1.06,1.048,1.048,0,0,1,1.09-.93H982V698h1.86a1.085,1.085,0,0,1,1.141.93A1.043,1.043,0,0,1,983.887,699.99Zm-11.9,12.68a1.123,1.123,0,0,1-1.59,0l-1.081-1.11a1.159,1.159,0,0,1,0-1.62,1.112,1.112,0,0,1,1.581,0l0.3,0.3,1.88-1.92a1.094,1.094,0,0,1,1.581,0,1.159,1.159,0,0,1,0,1.62Zm0-6a1.123,1.123,0,0,1-1.59,0l-1.081-1.11a1.159,1.159,0,0,1,0-1.62,1.112,1.112,0,0,1,1.581,0l0.3,0.3,1.88-1.92a1.094,1.094,0,0,1,1.581,0,1.147,1.147,0,0,1,0,1.61Zm0-6.01a1.1,1.1,0,0,1-1.59,0l-1.081-1.11a1.147,1.147,0,0,1,0-1.61,1.094,1.094,0,0,1,1.581,0l0.3,0.3,1.88-1.93a1.112,1.112,0,0,1,1.581,0,1.159,1.159,0,0,1,0,1.62Zm6.1,9.37H982V710h1.86a1.085,1.085,0,0,1,1.141.93,1.043,1.043,0,0,1-1.11,1.06H982v0.03h-3.951a1.016,1.016,0,0,1-1.05-1.06A1.055,1.055,0,0,1,978.085,710.03Zm-9.042-24.47a1,1,0,1,1-.76-1.85,23.26,23.26,0,0,1,3.821-1.19,1,1,0,1,1,.42,1.96,20.076,20.076,0,0,0-3.481,1.08m7.1-1.54a1,1,0,1,1-.08-2c0.31-.01.62-0.02,0.93-0.02a23.726,23.726,0,0,1,3.061.2,1,1,0,1,1-.26,1.98A21.73,21.73,0,0,0,977,684c-0.29,0-.57.01-0.85,0.02m7.211,0.96a1,1,0,1,1,.6-1.91,22.956,22.956,0,0,1,3.691,1.54,1,1,0,0,1-.93,1.77,20.89,20.89,0,0,0-3.361-1.4m6.432,3.37a1.013,1.013,0,0,1-.18-1.41,1,1,0,0,1,1.4-.18,22.955,22.955,0,0,1,2.951,2.7,1,1,0,0,1-1.481,1.35,20.94,20.94,0,0,0-2.69-2.46m4.921,5.36a1,1,0,1,1,1.68-1.08,22.134,22.134,0,0,1,1.851,3.54,1,1,0,1,1-1.841.77,21.558,21.558,0,0,0-1.69-3.23m2.79,6.7a1,1,0,0,1,1.951-.43,23.31,23.31,0,0,1,.53,3.96,1,1,0,0,1-.96,1.04,0.989,0.989,0,0,1-1.041-.95,21.878,21.878,0,0,0-.48-3.62m0.33,7.27a1,1,0,0,1,1.991.25,23.94,23.94,0,0,1-.85,3.9,1,1,0,0,1-1.911-.59,20.732,20.732,0,0,0,.77-3.56m-2.15,6.93a1,1,0,1,1,1.77.92,23.17,23.17,0,0,1-2.13,3.38,1,1,0,0,1-1.59-1.21,22.017,22.017,0,0,0,1.95-3.09m-4.4,5.79a1,1,0,0,1,1.36,1.47,23.6,23.6,0,0,1-3.16,2.45,1,1,0,1,1-1.081-1.68,21.333,21.333,0,0,0,2.881-2.24m-6.111,3.95a1,1,0,1,1,.78,1.84,21.922,21.922,0,0,1-3.8,1.23,1,1,0,1,1-.44-1.95,20.862,20.862,0,0,0,3.461-1.12m-7.082,1.62a1,1,0,0,1,.11,2q-0.6.03-1.2,0.03a23.55,23.55,0,0,1-2.8-.17,1,1,0,1,1,.241-1.98A21.977,21.977,0,0,0,977,726c0.37,0,.73-0.01,1.09-0.03m-7.211-.88a1,1,0,0,1-.59,1.92,22.9,22.9,0,0,1-3.7-1.5,1,1,0,1,1,.9-1.78,21.059,21.059,0,0,0,3.391,1.36m-6.482-3.29a1,1,0,1,1-1.2,1.6,22.834,22.834,0,0,1-2.98-2.67,1,1,0,0,1,1.46-1.37,20.976,20.976,0,0,0,2.72,2.44m-4.981-5.3a1,1,0,1,1-1.67,1.09,22.781,22.781,0,0,1-1.89-3.51,1,1,0,1,1,1.84-.79,22.014,22.014,0,0,0,1.72,3.21m-2.86-6.68a1,1,0,1,1-1.951.46,22.385,22.385,0,0,1-.57-3.95,1,1,0,1,1,1.991-.12,20.677,20.677,0,0,0,.53,3.61m-0.42-7.26a1,1,0,0,1-1.991-.23,23.877,23.877,0,0,1,.8-3.91,1,1,0,0,1,1.25-.67,0.993,0.993,0,0,1,.67,1.24,21.528,21.528,0,0,0-.73,3.57m2.07-6.96a0.988,0.988,0,0,1-1.34.45,1,1,0,0,1-.44-1.34,23.233,23.233,0,0,1,2.09-3.41,1,1,0,0,1,1.611,1.2,20.972,20.972,0,0,0-1.921,3.1m5.191-.78a1.05,1.05,0,0,1-1.91-.34l-1.05-4.73-4.731,1.04a1.046,1.046,0,1,1-.46-2.04L961,687.48a1.048,1.048,0,0,1,1.25.8l1.28,5.75A1.082,1.082,0,0,1,963.392,694.82Z" transform="translate(-950 -682)"/>
</svg>
