<svg xmlns="http://www.w3.org/2000/svg" width="54" height="46" viewBox="0 0 54 46">
  <path d="M686.161,728.022H679V727.99H648.839a2.853,2.853,0,0,1-2.833-2.866V684.859a2.853,2.853,0,0,1,2.833-2.866H680v0.031h6.159a2.853,2.853,0,0,1,2.833,2.866v40.266A2.853,2.853,0,0,1,686.161,728.022ZM687,685.028a1.214,1.214,0,0,0-1-1h-7V684H649a1.214,1.214,0,0,0-1,1v40a1.214,1.214,0,0,0,1,1h31v0.031h6a1.214,1.214,0,0,0,1-1v-40ZM681.893,704H677v0.032H664.051a1.026,1.026,0,0,1-1.053-1.07,1.06,1.06,0,0,1,1.089-.936H677v-0.031h4.858a1.1,1.1,0,0,1,1.149.936A1.053,1.053,0,0,1,681.893,704Zm0-9H677v0.032H664.051A1.022,1.022,0,0,1,663,693.962a1.057,1.057,0,0,1,1.089-.929H677V693h4.858a1.1,1.1,0,0,1,1.149.93A1.05,1.05,0,0,1,681.893,694.992Zm-26.655,19.739a1.025,1.025,0,0,1-1.451,0l-1.994-2a1.027,1.027,0,1,1,1.451-1.453l1.268,1.27,2.728-2.731a1.027,1.027,0,0,1,1.452,1.453Zm0-9a1.025,1.025,0,0,1-1.451,0l-1.994-2a1.027,1.027,0,0,1,1.451-1.454l1.268,1.27,2.728-2.731a1.027,1.027,0,1,1,1.452,1.453Zm0-9.5a1.025,1.025,0,0,1-1.451,0l-1.994-2a1.027,1.027,0,0,1,1.451-1.453l1.268,1.27,2.728-2.731a1.027,1.027,0,0,1,1.452,1.453Zm8.849,14.8H677V711h4.858a1.1,1.1,0,0,1,1.149.93,1.05,1.05,0,0,1-1.111,1.061H677v0.032H664.051A1.022,1.022,0,0,1,663,711.96,1.057,1.057,0,0,1,664.087,711.031Z" transform="translate(-640.5 -682.015)"/>
</svg>
