<svg xmlns="http://www.w3.org/2000/svg" width="54" height="46" viewBox="0 0 54 46">
  <path d="M1276,715a6,6,0,1,0,6,6A6.005,6.005,0,0,0,1276,715Zm0,10a4,4,0,1,1,4-4A4,4,0,0,1,1276,725Zm28-10a6,6,0,1,0,6,6A6.005,6.005,0,0,0,1304,715Zm0,10a4,4,0,1,1,4-4A4,4,0,0,1,1304,725Zm11.84-15.541-9-14A0.993,0.993,0,0,0,1306,695h-11a1,1,0,0,0-1,1v25a1,1,0,0,0,1,1h4v-2h-3V697h9.45l8.55,13.294v8.7a0.919,0.919,0,0,1-.98,1.006H1309v2h3c2.83,0,4-1.61,4-4v-8A0.952,0.952,0,0,0,1315.84,709.459ZM1300,708v-7h8v-2h-9a1,1,0,0,0-1,1v9a1,1,0,0,0,1,1h15v-2h-14Zm-8-23h-26c-2.78,0-4,1.165-4,4v29c0,2.941,1.22,4,4,4h5v-2h-5.99a0.974,0.974,0,0,1-1.01-1.1V688.175a1.118,1.118,0,0,1,1.06-1.175h28a1.113,1.113,0,0,1,.94,1.128V720h-13v2h14a1,1,0,0,0,1-1V689C1296,686.528,1295.11,685,1292,685Zm-29,31h6v2h-6v-2Zm20,0h11v2h-11v-2Zm28,0h4v2h-4v-2Zm-45-27h29v2h-29v-2Zm9,31h2v2h-2v-2Zm28,0h2v2h-2v-2Z" transform="translate(-1262 -683)"/>
</svg>
