<svg xmlns="http://www.w3.org/2000/svg" width="54" height="46" viewBox="0 0 54 46">
  <path d="M1464.25,715.149a3.912,3.912,0,0,0,.59-3.429,3.783,3.783,0,0,0-2.34-2.528l-0.5-.089V684.45c0-1.649-.78-2.45-2.37-2.45h-32.26a2.286,2.286,0,0,0-2.37,2.449V709h-5a1.021,1.021,0,0,0-1,1.037v16.931a1.021,1.021,0,0,0,1,1.036h5.48a3.694,3.694,0,0,0,2.81-1.319l0.15-.179,0.45,0.131A30.782,30.782,0,0,0,1437.9,728h12.41a9.166,9.166,0,0,0,7.37-3.806Zm-24.24-31.128h6.98v8.03l-2.93-1.752a0.988,0.988,0,0,0-1.12,0l-2.93,1.752v-8.03Zm-13,40.2a1.6,1.6,0,0,1-1.53,1.789h-4.47v-15h4.47a1.6,1.6,0,0,1,1.53,1.79v11.421Zm1.55-13.267-0.23-.337a2.8,2.8,0,0,0-1.32-1.307V685.08a0.972,0.972,0,0,1,1.08-1.059H1438v9.967a1.03,1.03,0,0,0,.53.912,0.962,0.962,0,0,0,1.03-.05l3.94-2.443,3.94,2.443a0.962,0.962,0,0,0,1.03.05,1.028,1.028,0,0,0,.53-0.912v-9.967h10a1.007,1.007,0,0,1,.99,1.026v24.059l0.02,0.089a3.768,3.768,0,0,0-1.49,1.006l-4.45,4.934-0.19-.62a3.561,3.561,0,0,0-3.57-2.51h-6.51a3.9,3.9,0,0,1-2.63-1.013,9.31,9.31,0,0,0-12.3-.312Zm27.51,12a7.212,7.212,0,0,1-5.76,3.029H1437.9a30.3,30.3,0,0,1-8.64-1.329l-0.28-.08,0.01-.326c0.01-.048.01-0.29,0.01-4.34V713.3l1.09-.98a7.343,7.343,0,0,1,9.74.21A5.811,5.811,0,0,0,1443.8,714h6.51a1.537,1.537,0,0,1,1.73,1.5,1.518,1.518,0,0,1-1.73,1.478h-9.86a1,1,0,0,0-1.01,1.01,1.022,1.022,0,0,0,1.01,1.036h10.77c1.04,0,2.04.046,2.74-.736l6.03-6.678a1.685,1.685,0,0,1,1.27-.57,1.724,1.724,0,0,1,1.55.99,1.842,1.842,0,0,1-.15,1.855l-0.01.017ZM1455.98,701h-8.92a0.981,0.981,0,0,0-1.01.987,1.023,1.023,0,0,0,1.01,1.036h8.92a1.021,1.021,0,0,0,1-1.036A0.978,0.978,0,0,0,1455.98,701Zm-3,4h-5.92a0.981,0.981,0,0,0-1.01.987,1.023,1.023,0,0,0,1.01,1.036h5.92a1.021,1.021,0,0,0,1-1.036A0.978,0.978,0,0,0,1452.98,705Z" transform="translate(-1415 -682)"/>
</svg>
