<svg xmlns="http://www.w3.org/2000/svg" width="54" height="46" viewBox="0 0 54 46">
  <path d="M1151.99,686.15l-16.18-8.757a3.415,3.415,0,0,0-4.48,1.342l-5.95,12.255h-11.76a2.592,2.592,0,0,0-2.62,2.621V720.38a2.591,2.591,0,0,0,2.62,2.62h36.79a2.574,2.574,0,0,0,2.6-2.62v-5.369h0.95a1.03,1.03,0,0,0,1.05-1.023v-7.954a1.012,1.012,0,0,0-1.03-1.022h-0.97V698.6a2.646,2.646,0,0,0-2.02-2.557l2.35-5.422A3.352,3.352,0,0,0,1151.99,686.15Zm-11.51-3.9-6.83,13.732h-2.88l7.53-14.883Zm-7.3-2.557a1.266,1.266,0,0,1,1.67-.511l1.6,0.895-7.98,15.9h-3.52Zm-20.2,13.83a0.622,0.622,0,0,1,.58-0.512h10.67l-1.65,2.976h-9.02a1.8,1.8,0,0,0-.58.064v-2.528Zm38.04,26.9a0.576,0.576,0,0,1-.58.575h-36.88a0.576,0.576,0,0,1-.58-0.575V698.6a0.576,0.576,0,0,1,.58-0.575h36.86a0.576,0.576,0,0,1,.58.575v6.409h-4.04a2.975,2.975,0,0,0-2.96,3.068v3.909a2.934,2.934,0,0,0,2.96,3.022h4.06v5.415h0Zm1.95-13.416h0.07v6h-6.08a0.972,0.972,0,0,1-.98-1.023v-3.956a0.972,0.972,0,0,1,.98-1.023h6.01Zm-1.49-17.409-2.86,6.382h-12.67l6.32-12.71,8.7,4.73A1.117,1.117,0,0,1,1151.48,689.6Zm-3.9-.959-0.51-.255a2.8,2.8,0,0,0-3.71,1.086l-0.64,1.215a2.716,2.716,0,0,0-.2,2.109,2.61,2.61,0,0,0,1.35,1.6l0.51,0.255a2.778,2.778,0,0,0,3.71-1.086l0.64-1.215A2.861,2.861,0,0,0,1147.58,688.642Zm-0.7,2.749-0.64,1.214a0.725,0.725,0,0,1-.96.256l-0.52-.32a1.06,1.06,0,0,1-.32-0.383,0.488,0.488,0,0,1,.07-0.512l0.64-1.214a0.845,0.845,0,0,1,.64-0.384,0.577,0.577,0,0,1,.32.064l0.51,0.256A1,1,0,0,1,1146.88,691.391Z" transform="translate(-1106 -677.015)"/>
</svg>
