<svg xmlns="http://www.w3.org/2000/svg" width="54" height="46" viewBox="0 0 54 46">
  <path d="M514,728.022h-2.009a1,1,0,0,1,0-1.991H514v1.991Zm-6,0h-2.009a1,1,0,1,1,0-1.991H508A1,1,0,0,1,508,728.022Zm-5.991,0H500a1,1,0,1,1,0-1.991h2.008A1,1,0,1,1,502.01,728.022Zm-6,0h-2a1,1,0,1,1,0-1.991h2.009A1,1,0,0,1,496.005,728.022Zm-5.006-3a1,1,0,0,1-1-1v-2.008a1,1,0,0,1,2,0v2.008A1,1,0,0,1,491,725.027Zm0-6a1,1,0,0,1-1-1v-2.008a1,1,0,0,1,2,0v2.008A1,1,0,0,1,491,719.032Zm0-6.01a1,1,0,0,1-1-1v-2.008a1,1,0,0,1,2,0v2.008A1,1,0,0,1,491,713.022Zm0-6a1,1,0,0,1-1-1v-2.008a1,1,0,0,1,2,0v2.008A1,1,0,0,1,491,707.027Zm0-6a1,1,0,0,1-1-1v-2.008a1,1,0,0,1,2,0v2.008A1,1,0,0,1,491,701.031Zm0-6.01a1,1,0,0,1-1-1v-2.008a1,1,0,0,1,2,0v2.008A1,1,0,0,1,491,695.021Zm0-6a1,1,0,0,1-1-1v-2.008a1,1,0,0,1,2,0v2.008A1,1,0,0,1,491,689.026Zm3-5a1,1,0,0,1-.011-2.006h2.021a1,1,0,0,1,0,2.006H494Zm19.993,0h-2.009a1,1,0,0,1,0-2.006H514v2.006Zm-5.988,0H506a1,1,0,0,1,0-2.006h2.008A1,1,0,0,1,508.007,684.03Zm-6,0h-2.008a1,1,0,0,1,0-2.006H502A1,1,0,0,1,502,684.03Zm0.69,16.789a1.027,1.027,0,0,0-1.452,0l-2.728,2.731-1.268-1.27a1.027,1.027,0,0,0-1.451,1.454l1.994,2a1.025,1.025,0,0,0,1.451,0l3.454-3.458A1.03,1.03,0,0,0,502.692,700.819Zm0,9a1.026,1.026,0,0,0-1.452,0l-2.728,2.731-1.268-1.27a1.027,1.027,0,1,0-1.451,1.453l1.994,2a1.025,1.025,0,0,0,1.451,0l3.454-3.458A1.03,1.03,0,0,0,502.692,709.82Zm0-18.5a1.027,1.027,0,0,0-1.452,0l-2.728,2.731-1.268-1.27a1.027,1.027,0,0,0-1.451,1.453l1.994,2a1.025,1.025,0,0,0,1.451,0l3.454-3.458A1.03,1.03,0,0,0,502.692,691.315ZM519,681.038v47.913a1,1,0,1,1-2,0V681.038A1,1,0,1,1,519,681.038Zm3,0.986h8.163a2.853,2.853,0,0,1,2.833,2.866v40.266a2.853,2.853,0,0,1-2.833,2.866H522l0-1.994h8a1.214,1.214,0,0,0,1-1v-40a1.214,1.214,0,0,0-1-1h-8Zm3.895,30.966H522V711h3.857a1.1,1.1,0,0,1,1.149.93A1.05,1.05,0,0,1,525.893,712.99Zm0-8.994H522v-2h3.857a1.1,1.1,0,0,1,1.149.936A1.053,1.053,0,0,1,525.893,704Zm0-9H522V693h3.857a1.1,1.1,0,0,1,1.149.93A1.05,1.05,0,0,1,525.893,694.992Zm-17.842,18.03H514v-1.991h-5.916a1.057,1.057,0,0,0-1.089.929A1.022,1.022,0,0,0,508.051,713.022Zm0-8.994H514v-2.006h-5.916a1.06,1.06,0,0,0-1.089.936A1.026,1.026,0,0,0,508.051,704.028Zm0-9H514v-1.991h-5.916a1.057,1.057,0,0,0-1.089.929A1.022,1.022,0,0,0,508.051,695.024Z" transform="translate(-484.5 -682)"/>
</svg>
